<?xml version="1.0" standalone="no"?>
<!DOCTYPE svg PUBLIC "-//W3C//DTD SVG 20010904//EN"
 "http://www.w3.org/TR/2001/REC-SVG-20010904/DTD/svg10.dtd">
<svg version="1.0" xmlns="http://www.w3.org/2000/svg"
 width="2304.000000pt" height="2304.000000pt" viewBox="0 0 2304.000000 2304.000000"
 preserveAspectRatio="xMidYMid meet">
<metadata>
Created by potrace 1.11, written by Peter Selinger 2001-2013
</metadata>
<g transform="translate(0.000000,2304.000000) scale(0.100000,-0.100000)"
fill="#000000" stroke="none">
<path d="M11375 23028 c-124 -9 -175 -19 -495 -101 -220 -56 -486 -119 -625
-148 -22 -5 -49 -10 -60 -13 -80 -17 -275 -58 -295 -62 -14 -3 -68 -14 -120
-26 -52 -11 -106 -22 -120 -25 -31 -5 -416 -86 -570 -120 -112 -24 -325 -69
-365 -77 -11 -3 -54 -12 -95 -21 -41 -9 -124 -27 -185 -40 -60 -13 -193 -42
-295 -64 -102 -22 -457 -98 -790 -170 -333 -71 -837 -180 -1120 -241 -687
-148 -2154 -462 -2360 -506 -91 -19 -172 -37 -180 -39 -8 -1 -62 -13 -120 -25
-479 -100 -1808 -389 -1980 -430 -186 -44 -399 -92 -465 -106 -11 -2 -107 -22
-214 -44 -107 -22 -215 -43 -240 -46 -89 -12 -194 -44 -228 -70 -18 -14 -43
-44 -56 -67 l-22 -42 0 -4785 c0 -2632 4 -4891 9 -5020 13 -358 22 -562 31
-680 2 -30 7 -102 11 -160 3 -58 7 -121 9 -140 2 -19 6 -73 10 -120 4 -47 8
-101 10 -120 2 -19 7 -71 11 -115 3 -44 8 -87 9 -96 2 -9 6 -52 10 -95 4 -43
9 -81 10 -84 2 -3 6 -41 10 -85 3 -44 8 -87 10 -95 2 -8 7 -37 10 -65 3 -27 8
-61 10 -75 3 -14 7 -47 10 -75 4 -27 8 -57 10 -65 2 -8 7 -35 10 -60 5 -42 69
-414 80 -470 52 -263 76 -374 126 -580 309 -1261 767 -2252 1414 -3060 243
-303 545 -609 854 -864 731 -604 1637 -1034 2826 -1341 196 -51 466 -115 510
-122 17 -2 37 -6 45 -9 23 -8 422 -88 660 -133 197 -36 424 -77 825 -146 162
-28 172 -30 255 -45 30 -5 69 -12 85 -15 486 -82 1137 -221 1530 -324 717
-190 1153 -454 1439 -874 86 -125 163 -297 228 -505 19 -59 29 -77 55 -93 l32
-20 25 43 c14 24 37 82 50 130 72 248 189 458 340 610 97 97 156 139 395 277
368 214 615 333 849 410 246 82 968 230 2162 446 1064 192 1411 262 1820 367
779 198 1397 440 2015 788 528 297 1117 778 1500 1224 28 32 57 65 66 74 9 10
53 63 98 119 658 824 1107 1797 1426 3093 35 143 72 301 81 350 3 14 13 66 24
115 10 50 35 178 54 285 38 211 39 217 61 365 8 55 18 116 21 135 5 37 20 153
29 230 3 25 10 77 15 115 10 76 16 123 25 230 4 39 8 77 10 85 2 8 7 65 11
125 3 61 8 112 9 115 2 3 6 61 10 130 4 69 9 138 10 154 2 15 7 98 10 185 3
86 8 183 10 216 14 193 17 1260 17 5425 1 3580 -2 4645 -11 4678 -24 87 -74
138 -160 166 -25 8 -120 29 -211 46 -306 58 -583 117 -910 195 -102 25 -356
81 -565 125 -609 130 -568 121 -1861 401 -128 27 -240 51 -250 54 -23 4 -784
169 -904 195 -47 10 -200 43 -340 74 -318 68 -727 157 -1060 230 -140 30 -307
66 -370 80 -249 53 -1007 217 -1045 226 -22 6 -197 44 -390 85 -192 42 -399
87 -460 100 -60 13 -258 56 -440 95 -181 39 -357 77 -390 85 -33 8 -94 21
-135 29 -41 9 -190 41 -330 71 -140 31 -327 71 -415 90 -88 19 -233 50 -322
69 -230 50 -390 76 -502 82 -53 3 -103 6 -111 7 -8 2 -60 -1 -115 -5z"/>
</g>
</svg>
